<svg xmlns="http://www.w3.org/2000/svg" width="23" height="23" viewBox="0 0 23 23" fill="none">
<path d="M9.53765 19.5477C9.0374 19.5477 8.5636 19.3143 8.26 18.9118L4.15105 13.4826C4.02401 13.3149 3.93126 13.1239 3.87811 12.9204C3.82496 12.7168 3.81245 12.5048 3.84128 12.2964C3.87012 12.0881 3.93974 11.8874 4.04617 11.706C4.1526 11.5245 4.29375 11.3658 4.46155 11.239C4.62928 11.1116 4.82051 11.0185 5.02427 10.9652C5.22803 10.9118 5.44032 10.8992 5.64897 10.9281C5.85761 10.9569 6.05851 11.0266 6.24016 11.1333C6.4218 11.2399 6.58061 11.3813 6.7075 11.5495L9.41115 15.1191L16.2088 4.20327C16.4342 3.84286 16.7934 3.58658 17.2076 3.49064C17.6217 3.3947 18.057 3.46694 18.4179 3.69152C19.1689 4.15842 19.4 5.14742 18.9308 5.89952L10.8992 18.791C10.7621 19.0121 10.5732 19.1963 10.3487 19.3278C10.1243 19.4593 9.87111 19.534 9.61125 19.5454C9.58595 19.5477 9.56295 19.5477 9.53765 19.5477Z" fill="#A4A4A4"/>
</svg>