<svg xmlns="http://www.w3.org/2000/svg" width="20" height="20" viewBox="0 0 20 20" fill="none">
  <path d="M8.10671 16.6156C7.68149 16.6156 7.27876 16.4172 7.0207 16.075L3.5281 11.4603C3.42012 11.3178 3.34128 11.1554 3.2961 10.9824C3.25093 10.8093 3.24029 10.6291 3.2648 10.452C3.28931 10.2749 3.34849 10.1044 3.43895 9.95012C3.52942 9.79589 3.64939 9.661 3.79202 9.55317C3.9346 9.44489 4.09714 9.3658 4.27034 9.32046C4.44354 9.27511 4.62398 9.26438 4.80133 9.2889C4.97868 9.31342 5.14944 9.3727 5.30384 9.46334C5.45824 9.55397 5.59323 9.67419 5.70108 9.81709L7.99918 12.8513L13.7772 3.57283C13.9688 3.26648 14.2741 3.04864 14.6261 2.96709C14.9782 2.88555 15.3482 2.94695 15.655 3.13784C16.2933 3.5347 16.4897 4.37535 16.0909 5.01464L9.26407 15.9724C9.14753 16.1603 8.9869 16.3169 8.79611 16.4287C8.60533 16.5404 8.39015 16.6039 8.16927 16.6137C8.14776 16.6156 8.12821 16.6156 8.10671 16.6156Z" fill="#9C0404"/>
</svg>