<svg xmlns="http://www.w3.org/2000/svg" width="102" height="114" viewBox="0 0 102 114" fill="none">
  <path d="M86.8413 13.2149V45.9122C75.4964 50.6911 63.2812 53.057 50.9724 52.8594C38.6636 53.057 26.4484 50.6911 15.1035 45.9122V1.88784C15.1035 1.38715 15.3024 0.906972 15.6565 0.552934C16.0105 0.198896 16.4907 0 16.9914 0H73.6264L86.8413 13.2149Z" fill="#CCE2FF"/>
  <path d="M73.625 0V11.327C73.625 11.8277 73.8239 12.3079 74.1779 12.6619C74.532 13.016 75.0122 13.2149 75.5128 13.2149H86.8399L73.625 0Z" fill="#B8CBE6"/>
  <path d="M50.971 45.3082C60.3546 45.3082 67.9615 37.7013 67.9615 28.3177C67.9615 18.9341 60.3546 11.3271 50.971 11.3271C41.5874 11.3271 33.9805 18.9341 33.9805 28.3177C33.9805 37.7013 41.5874 45.3082 50.971 45.3082Z" fill="#44A649"/>
  <path d="M88.0478 87.2181C88.1523 87.4571 88.3052 87.6719 88.4969 87.8488C88.6885 88.0258 88.9148 88.1611 89.1613 88.2462C89.4079 88.3314 89.6694 88.3645 89.9294 88.3435C90.1894 88.3225 90.4422 88.2479 90.6719 88.1243L101.999 82.5741L87.6136 53.4636L76.2866 59.0139C76.0589 59.1305 75.8573 59.2923 75.694 59.4893C75.5307 59.6863 75.4092 59.9145 75.3368 60.1599C75.2644 60.4053 75.2427 60.6629 75.2729 60.917C75.3031 61.1711 75.3847 61.4164 75.5126 61.638L76.6642 63.9978C73.9646 64.9417 68.5465 65.2248 58.2389 61.0527C40.682 53.9167 31.375 76.1554 31.375 79.5158C31.375 82.8761 41.2106 83.7256 47.0063 73.4558L78.8163 93.4291C80.6115 89.8477 83.4479 86.8929 86.9529 84.9527L88.0478 87.2181Z" fill="#2970CC"/>
  <path d="M79.61 93.9387L46.9505 73.4556L35.8689 69.2646C32.8389 68.5769 29.9929 67.244 27.5247 65.3568L27.8645 64.7905C28.1195 64.3386 28.1872 63.8048 28.0531 63.3036C27.919 62.8024 27.5937 62.3738 27.1471 62.1097L16.2354 55.8232L0 83.9142L10.9117 90.2007C11.1313 90.337 11.3766 90.4267 11.6323 90.4643C11.888 90.5019 12.1487 90.4866 12.3982 90.4194C12.6478 90.3521 12.8808 90.2343 13.083 90.0733C13.2852 89.9123 13.4521 89.7115 13.5735 89.4834L14.0833 88.5961L20.7662 93.5611L46.4785 108.777L52.8594 112.647C53.429 113.032 54.093 113.254 54.7796 113.29C55.4662 113.325 56.1495 113.172 56.7556 112.848C57.3618 112.523 57.8679 112.04 58.2192 111.449C58.5706 110.858 58.7539 110.182 58.7495 109.494C58.7444 108.859 58.5791 108.235 58.2689 107.681C57.9587 107.127 57.5136 106.66 56.9749 106.323L59.9577 108.116C60.7181 108.616 61.6335 108.825 62.5353 108.703C63.4372 108.582 64.2649 108.139 64.8661 107.456C65.2188 107.04 65.4774 106.553 65.6241 106.029C65.7708 105.504 65.8022 104.953 65.7161 104.415C65.6301 103.877 65.4285 103.364 65.1253 102.911C64.8222 102.458 64.4246 102.077 63.9599 101.792L66.9804 103.68C67.7409 104.18 68.6562 104.388 69.5581 104.267C70.46 104.145 71.2876 103.702 71.8888 103.019C72.2424 102.605 72.5021 102.119 72.6503 101.595C72.7985 101.071 72.8316 100.521 72.7473 99.9834C72.663 99.4454 72.4634 98.932 72.162 98.4784C71.8607 98.0249 71.4648 97.6418 71.0015 97.3556L75.6456 100.15C76.2113 100.508 76.862 100.71 77.5312 100.733C78.2004 100.757 78.8639 100.603 79.4538 100.286C80.0436 99.969 80.5385 99.5008 80.8878 98.9295C81.237 98.3581 81.428 97.7042 81.4413 97.0347C81.4176 96.4071 81.2378 95.7952 80.918 95.2546C80.5983 94.714 80.1487 94.2617 79.61 93.9387Z" fill="#E65C62"/>
  <path d="M27.5059 65.3569L27.5246 65.3756V65.3569H27.5059Z" fill="#FFD299"/>
  <path d="M79.6108 93.9389L46.9512 73.4559L35.8696 69.2649C32.8414 68.5822 29.9956 67.2559 27.5254 65.376L14.084 88.6152L20.7669 93.5614L46.4793 108.777L53.0489 112.742C53.8795 113.083 54.8045 113.117 55.658 112.838C56.5114 112.559 57.2375 111.985 57.7058 111.219C58.1742 110.453 58.3541 109.545 58.2134 108.658C58.0726 107.771 57.6204 106.963 56.9379 106.38L60.0906 108.268C60.9125 108.553 61.8077 108.545 62.6247 108.246C63.4417 107.947 64.1304 107.375 64.5744 106.627C65.0184 105.879 65.1904 105.001 65.0613 104.14C64.9323 103.28 64.5102 102.491 63.8662 101.906L67.0567 103.793C67.4712 104.17 67.9643 104.45 68.5003 104.612C69.0362 104.775 69.6016 104.816 70.1555 104.733C70.7093 104.65 71.2377 104.444 71.7025 104.132C72.1672 103.819 72.5566 103.407 72.8424 102.926C73.1282 102.444 73.3033 101.905 73.355 101.347C73.4067 100.79 73.3337 100.227 73.1413 99.7015C72.9489 99.1756 72.6419 98.699 72.2425 98.3064C71.8432 97.9138 71.3615 97.6149 70.8323 97.4314L75.6086 100.301C76.4579 100.799 77.4681 100.945 78.4238 100.709C79.3794 100.472 80.205 99.8723 80.7246 99.0361C81.0706 98.4662 81.2595 97.8148 81.2721 97.1483C81.2856 96.5171 81.1405 95.8926 80.8503 95.3319C80.5601 94.7713 80.1339 94.2923 79.6108 93.9389Z" fill="#FFD299"/>
  <path d="M59.1641 98.9981L67.2251 103.831C67.779 104.151 68.4073 104.319 69.0469 104.319C69.6865 104.319 70.3148 104.151 70.8686 103.831L60.1269 97.4124L59.1641 98.9981Z" fill="#E6B373"/>
  <path d="M65.621 92.051L64.6582 93.6557L75.7776 100.32C76.3515 100.651 77.0026 100.826 77.6654 100.826C78.3282 100.826 78.9793 100.651 79.5532 100.32L65.621 92.051Z" fill="#E6B373"/>
  <path d="M52.123 103.453L60.2219 108.324C60.7775 108.628 61.4008 108.787 62.0342 108.787C62.6676 108.787 63.2908 108.628 63.8465 108.324L53.0858 101.943L52.123 103.453Z" fill="#E6B373"/>
  <path d="M27.3188 91.4198L26.6187 90.9381C25.1153 89.9036 23.0578 90.2837 22.0233 91.7872L19.4329 95.5517C18.3984 97.0552 18.7785 99.1126 20.282 100.147L20.982 100.629C22.4854 101.663 24.5429 101.283 25.5774 99.7798L28.1678 96.0153C29.2024 94.5118 28.8222 92.4544 27.3188 91.4198Z" fill="#FFC680"/>
  <path d="M34.5102 94.1303L33.8102 93.6486C32.3067 92.6141 30.2492 92.9942 29.2147 94.4977L25.5753 99.7866C24.5408 101.29 24.9209 103.348 26.4244 104.382L27.1244 104.864C28.6278 105.898 30.6853 105.518 31.7198 104.015L35.3592 98.7257C36.3938 97.2223 36.0136 95.1648 34.5102 94.1303Z" fill="#FFC680"/>
  <path d="M40.6508 98.3461L39.9508 97.8644C38.4473 96.8299 36.3899 97.21 35.3553 98.7135L32.7649 102.478C31.7304 103.981 32.1105 106.039 33.614 107.073L34.314 107.555C35.8175 108.59 37.8749 108.21 38.9095 106.706L41.4998 102.942C42.5344 101.438 42.1542 99.3806 40.6508 98.3461Z" fill="#FFC680"/>
  <path d="M89.9941 79.6057L93.3316 77.9649L95.0558 81.4718L91.7183 83.1126L89.9941 79.6057Z" fill="#1258B3"/>
  <path d="M76.6076 63.9977C73.9079 64.9416 68.4899 65.2248 58.1823 61.0526C40.6254 53.9166 31.3184 76.1553 31.3184 79.5157C31.3184 82.876 41.154 83.7255 46.9496 73.4557L78.8163 93.429C80.6115 89.8476 83.4478 86.8928 86.9529 84.9526L76.6076 63.9977Z" fill="#FFC680"/>
  <path d="M79.9679 91.5978L79.0617 91.0314L66.4321 83.0647C67.2774 82.5044 68.0732 81.8729 68.8108 81.1769C69.6796 80.3368 70.4406 79.392 71.0762 78.364L69.4527 77.4012C68.823 78.4104 68.054 79.3256 67.1684 80.1197C66.4052 80.8254 65.5772 81.4575 64.6953 82.0076L47.1951 71.0581C41.7392 80.7238 32.7342 80.7238 31.6582 77.741C31.4704 78.3158 31.3562 78.9121 31.3184 79.5156C31.3184 83.0647 41.154 83.7255 46.9496 73.4557L62.5054 83.1969L64.3932 84.3862L78.8352 93.4478C79.2883 92.7682 79.5715 92.1641 79.9679 91.5978Z" fill="#E6A85C"/>
  <path d="M45.7231 104.106L45.023 103.625C43.5196 102.59 41.4621 102.97 40.4276 104.474L38.8969 106.698C37.8624 108.202 38.2425 110.259 39.746 111.294L40.446 111.775C41.9494 112.81 44.0069 112.43 45.0414 110.926L46.5721 108.702C47.6066 107.198 47.2265 105.141 45.7231 104.106Z" fill="#FFC680"/>
  <path d="M47.3079 36.8882C46.936 36.8889 46.5677 36.8158 46.2242 36.6732C45.8807 36.5307 45.5689 36.3214 45.3068 36.0575L40.625 31.3757L44.6272 27.3735L47.3079 30.0353L57.3135 20.0298L61.3157 24.032L49.309 36.0575C48.7751 36.5836 48.0575 36.8814 47.3079 36.8882Z" fill="#F2F2F2"/>
</svg>