<svg xmlns="http://www.w3.org/2000/svg" width="32" height="32" viewBox="0 0 32 32" fill="none">
  <path d="M14.2857 15.9998C14.2857 16.4545 14.4663 16.8905 14.7878 17.212C15.1093 17.5335 15.5454 17.7141 16 17.7141C16.4547 17.7141 16.8907 17.5335 17.2122 17.212C17.5337 16.8905 17.7143 16.4545 17.7143 15.9998C17.7143 15.5451 17.5337 15.1091 17.2122 14.7876C16.8907 14.4661 16.4547 14.2855 16 14.2855C15.5454 14.2855 15.1093 14.4661 14.7878 14.7876C14.4663 15.1091 14.2857 15.5451 14.2857 15.9998ZM21.4285 15.9998C21.4285 16.4545 21.6091 16.8905 21.9306 17.212C22.2521 17.5335 22.6881 17.7141 23.1428 17.7141C23.5974 17.7141 24.0335 17.5335 24.3549 17.212C24.6764 16.8905 24.857 16.4545 24.857 15.9998C24.857 15.5451 24.6764 15.1091 24.3549 14.7876C24.0335 14.4661 23.5974 14.2855 23.1428 14.2855C22.6881 14.2855 22.2521 14.4661 21.9306 14.7876C21.6091 15.1091 21.4285 15.5451 21.4285 15.9998ZM7.14297 15.9998C7.14297 16.4545 7.32358 16.8905 7.64507 17.212C7.96655 17.5335 8.40258 17.7141 8.85723 17.7141C9.31189 17.7141 9.74792 17.5335 10.0694 17.212C10.3909 16.8905 10.5715 16.4545 10.5715 15.9998C10.5715 15.5451 10.3909 15.1091 10.0694 14.7876C9.74792 14.4661 9.31189 14.2855 8.85723 14.2855C8.40258 14.2855 7.96655 14.4661 7.64507 14.7876C7.32358 15.1091 7.14297 15.5451 7.14297 15.9998ZM30.757 9.79988C29.9498 7.88204 28.7927 6.16064 27.3177 4.68208C25.8531 3.21209 24.1143 2.04362 22.1999 1.24284C20.2357 0.417852 18.15 0 16 0H15.9286C13.7643 0.0107142 11.6679 0.43928 9.69651 1.28213C7.79852 2.09112 6.07607 3.26166 4.62514 4.72851C3.16445 6.20349 2.01803 7.91776 1.22519 9.82845C0.403769 11.807 -0.0105115 13.9105 0.000202614 16.0748C0.0123212 18.555 0.599094 20.9987 1.71447 23.214V28.6425C1.71447 29.0782 1.88755 29.4961 2.19564 29.8042C2.50373 30.1123 2.9216 30.2853 3.3573 30.2853H8.78938C11.0047 31.4007 13.4484 31.9875 15.9286 31.9996H16.0036C18.1428 31.9996 20.2178 31.5853 22.1714 30.7746C24.0761 29.9834 25.8083 28.8285 27.2713 27.3747C28.7463 25.914 29.907 24.2068 30.7177 22.3033C31.5605 20.3319 31.9891 18.2355 31.9998 16.0712C32.0105 13.8963 31.5891 11.7856 30.757 9.79988ZM25.3606 25.4425C22.8571 27.9211 19.5357 29.2853 16 29.2853H15.9393C13.7857 29.2746 11.6465 28.7389 9.75722 27.7318L9.45723 27.5711H4.42872V22.5426L4.26801 22.2426C3.26088 20.3533 2.72517 18.2141 2.71445 16.0605C2.70017 12.4998 4.06087 9.15703 6.55726 6.6392C9.05009 4.12138 12.3822 2.72854 15.9429 2.71425H16.0036C17.7893 2.71425 19.5214 3.06068 21.1535 3.74638C22.7463 4.41423 24.1749 5.37493 25.4035 6.60349C26.6284 7.82847 27.5927 9.2606 28.2606 10.8534C28.9534 12.5034 29.2998 14.2534 29.2927 16.0605C29.2713 19.6176 27.8749 22.9497 25.3606 25.4425Z" fill="#797979"/>
  <path fill-rule="evenodd" clip-rule="evenodd" d="M26.6093 5.38791C25.237 4.01054 23.6078 2.9157 21.814 2.16538L21.8127 2.16482C19.9723 1.39186 18.0184 1 16 1H15.9311C13.8986 1.01038 11.9352 1.41256 10.0896 2.20162L10.0886 2.20205C8.30996 2.96018 6.6958 4.05713 5.3361 5.43175C3.96513 6.81612 2.89131 8.4224 2.14883 10.2117C1.37872 12.0667 0.990133 14.0383 1.00019 16.0698C1.01155 18.3955 1.56177 20.687 2.60765 22.7643L2.71447 22.9765V28.6425C2.71447 28.813 2.78219 28.9765 2.90275 29.0971C3.02331 29.2176 3.18681 29.2853 3.3573 29.2853H9.02692L9.23908 29.3922C11.3157 30.4377 13.6063 30.9879 15.9312 30.9996H16.0036C18.0118 30.9996 19.9565 30.6111 21.7881 29.851C23.5727 29.1096 25.1957 28.0276 26.5664 26.6654L26.5676 26.6641C27.951 25.2942 29.038 23.6951 29.7976 21.9115L29.7982 21.9102C30.5876 20.0639 30.9897 18.0997 30.9998 16.0663C31.0099 14.0261 30.615 12.0488 29.835 10.1872C29.0782 8.38906 27.9935 6.77541 26.6093 5.38791ZM30.757 9.79988C29.9498 7.88204 28.7927 6.16064 27.3177 4.68208C25.8531 3.21209 24.1143 2.04362 22.1999 1.24284C20.2357 0.417852 18.15 0 16 0H15.9286C13.7643 0.0107142 11.6679 0.43928 9.69651 1.28213C7.79852 2.09112 6.07607 3.26166 4.62514 4.72851C3.16445 6.20349 2.01803 7.91776 1.22519 9.82845C0.403769 11.807 -0.0105115 13.9105 0.000202614 16.0748C0.0123212 18.555 0.599094 20.9987 1.71447 23.214V28.6425C1.71447 29.0782 1.88755 29.4961 2.19564 29.8042C2.50373 30.1123 2.9216 30.2853 3.3573 30.2853H8.78938C11.0047 31.4007 13.4484 31.9875 15.9286 31.9996H16.0036C18.1428 31.9996 20.2178 31.5853 22.1714 30.7746C24.0761 29.9834 25.8083 28.8285 27.2713 27.3747C28.7463 25.914 29.907 24.2068 30.7177 22.3033C31.5605 20.3319 31.9891 18.2355 31.9998 16.0712C32.0105 13.8963 31.5891 11.7856 30.757 9.79988ZM26.0642 26.1532C23.3728 28.8177 19.7983 30.2853 16 30.2853H15.9343C13.6203 30.2738 11.321 29.6987 9.28681 28.6142L9.28501 28.6133L9.20625 28.5711H3.42872V22.7936L3.38556 22.713C2.30115 20.6788 1.72598 18.3795 1.71447 16.0655C1.69913 12.2418 3.1626 8.64271 5.84714 5.93512C8.52792 3.22773 12.1145 1.7296 15.9388 1.71426L15.9429 1.71424L16.0036 1.71425C17.9207 1.71425 19.7846 2.0866 21.5408 2.82444C23.2541 3.54287 24.791 4.57684 26.1106 5.89638C27.4266 7.21238 28.4643 8.75311 29.1828 10.4668C29.9281 12.2419 30.3004 14.1249 30.2927 16.0645L30.2927 16.0665C30.2697 19.8868 28.7673 23.4731 26.0642 26.1532ZM28.2606 10.8534C27.5927 9.2606 26.6284 7.82847 25.4035 6.60349C24.1749 5.37493 22.7463 4.41423 21.1535 3.74638C19.5214 3.06068 17.7893 2.71425 16.0036 2.71425H15.9429C12.3822 2.72854 9.05009 4.12138 6.55726 6.6392C4.06087 9.15703 2.70017 12.4998 2.71445 16.0605C2.72517 18.2141 3.26088 20.3533 4.26801 22.2426L4.42872 22.5426V27.5711H9.45723L9.75722 27.7318C11.6465 28.7389 13.7857 29.2746 15.9393 29.2853H16C19.5357 29.2853 22.8571 27.9211 25.3606 25.4425C27.8749 22.9497 29.2713 19.6176 29.2927 16.0605C29.2998 14.2534 28.9534 12.5034 28.2606 10.8534ZM15.2857 15.9998C15.2857 16.1892 15.361 16.3709 15.4949 16.5049C15.6289 16.6388 15.8106 16.7141 16 16.7141C16.1894 16.7141 16.3711 16.6388 16.5051 16.5049C16.639 16.3709 16.7143 16.1892 16.7143 15.9998C16.7143 15.8104 16.639 15.6287 16.5051 15.4947C16.3711 15.3608 16.1894 15.2855 16 15.2855C15.8106 15.2855 15.6289 15.3608 15.4949 15.4947C15.361 15.6287 15.2857 15.8104 15.2857 15.9998ZM22.4285 15.9998C22.4285 16.1892 22.5038 16.3709 22.6377 16.5049C22.7717 16.6388 22.9533 16.7141 23.1428 16.7141C23.3322 16.7141 23.5139 16.6388 23.6478 16.5049C23.7818 16.3709 23.857 16.1892 23.857 15.9998C23.857 15.8104 23.7818 15.6287 23.6478 15.4947C23.5139 15.3608 23.3322 15.2855 23.1428 15.2855C22.9533 15.2855 22.7717 15.3608 22.6377 15.4947C22.5038 15.6287 22.4285 15.8104 22.4285 15.9998ZM8.14297 15.9998C8.14297 16.1892 8.21822 16.3709 8.35217 16.5049C8.48613 16.6388 8.6678 16.7141 8.85723 16.7141C9.04667 16.7141 9.22834 16.6388 9.3623 16.5049C9.49625 16.3709 9.5715 16.1892 9.5715 15.9998C9.5715 15.8104 9.49625 15.6287 9.3623 15.4947C9.22835 15.3608 9.04667 15.2855 8.85723 15.2855C8.6678 15.2855 8.48612 15.3608 8.35217 15.4947C8.21822 15.6287 8.14297 15.8104 8.14297 15.9998ZM14.7878 17.212C14.4663 16.8905 14.2857 16.4545 14.2857 15.9998C14.2857 15.5451 14.4663 15.1091 14.7878 14.7876C15.1093 14.4661 15.5454 14.2855 16 14.2855C16.4547 14.2855 16.8907 14.4661 17.2122 14.7876C17.5337 15.1091 17.7143 15.5451 17.7143 15.9998C17.7143 16.4545 17.5337 16.8905 17.2122 17.212C16.8907 17.5335 16.4547 17.7141 16 17.7141C15.5454 17.7141 15.1093 17.5335 14.7878 17.212ZM21.9306 17.212C21.6091 16.8905 21.4285 16.4545 21.4285 15.9998C21.4285 15.5451 21.6091 15.1091 21.9306 14.7876C22.2521 14.4661 22.6881 14.2855 23.1428 14.2855C23.5974 14.2855 24.0335 14.4661 24.3549 14.7876C24.6764 15.1091 24.857 15.5451 24.857 15.9998C24.857 16.4545 24.6764 16.8905 24.3549 17.212C24.0335 17.5335 23.5974 17.7141 23.1428 17.7141C22.6881 17.7141 22.2521 17.5335 21.9306 17.212ZM7.64507 17.212C7.32358 16.8905 7.14297 16.4545 7.14297 15.9998C7.14297 15.5451 7.32358 15.1091 7.64507 14.7876C7.96655 14.4661 8.40258 14.2855 8.85723 14.2855C9.31189 14.2855 9.74792 14.4661 10.0694 14.7876C10.3909 15.1091 10.5715 15.5451 10.5715 15.9998C10.5715 16.4545 10.3909 16.8905 10.0694 17.212C9.74792 17.5335 9.31189 17.7141 8.85723 17.7141C8.40258 17.7141 7.96655 17.5335 7.64507 17.212Z" fill="#797979"/>
</svg>