<svg xmlns="http://www.w3.org/2000/svg" width="66" height="66" viewBox="0 0 66 66" fill="none">
  <g clip-path="url(#clip0_155_1574)">
    <path d="M43.957 23.9766C43.957 22.9087 43.0913 22.043 42.0234 22.043H23.9766C22.9087 22.043 22.043 22.9087 22.043 23.9766V42.0234C22.043 43.0913 22.9087 43.957 23.9766 43.957H42.0234C43.0913 43.957 43.957 43.0913 43.957 42.0234V23.9766Z" fill="#414143"/>
    <path d="M48.342 21.7591C49.0971 22.5142 50.3213 22.5142 51.0765 21.7591L58.1865 14.649L61.1122 17.5747C62.2587 18.7212 64.2222 18.0324 64.4012 16.421L65.9872 2.14745C66.1239 0.915879 65.0834 -0.124652 63.8518 0.0121173L49.5783 1.59805C47.9669 1.7771 47.2781 3.7406 48.4246 4.88709L51.3503 7.81275L44.2402 14.9228C43.485 15.678 43.485 16.9022 44.2402 17.6573L48.342 21.7591Z" fill="#9C0404"/>
    <path d="M1.59805 16.421C1.7771 18.0324 3.7406 18.7212 4.88709 17.5747L7.81275 14.649L14.9228 21.7591C15.678 22.5142 16.9022 22.5142 17.6573 21.7591L21.7591 17.6573C22.5142 16.9022 22.5142 15.678 21.7591 14.9228L14.649 7.81275L17.5747 4.88709C18.7212 3.7406 18.0324 1.7771 16.421 1.59805L2.14745 0.0121173C0.915879 -0.124652 -0.124652 0.915879 0.0121173 2.14745L1.59805 16.421Z" fill="#9C0404"/>
    <path d="M64.4012 49.579C64.2222 47.9676 62.2587 47.2788 61.1122 48.4253L58.1865 51.351L51.0765 44.2409C50.3213 43.4857 49.0971 43.4857 48.342 44.2409L44.2402 48.3427C43.485 49.0978 43.485 50.322 44.2402 51.0772L51.3503 58.1872L48.4246 61.1129C47.2781 62.2594 47.9669 64.2229 49.5783 64.4019L63.8518 65.9879C65.0834 66.1248 66.1239 65.0841 65.9872 63.8527L64.4012 49.579Z" fill="#9C0404"/>
    <path d="M17.6573 44.2409C16.9022 43.4857 15.678 43.4857 14.9228 44.2409L7.81275 51.351L4.88709 48.4253C3.7406 47.2788 1.7771 47.9676 1.59805 49.579L0.0121173 63.8525C-0.124652 65.0841 0.915879 66.1246 2.14745 65.9878L16.421 64.4018C18.0324 64.2228 18.7212 62.2593 17.5747 61.1128L14.649 58.1871L21.7591 51.077C22.5142 50.3219 22.5142 49.0977 21.7591 48.3425L17.6573 44.2409Z" fill="#9C0404"/>
  </g>
  <defs>
    <clipPath id="clip0_155_1574">
      <rect width="66" height="66" fill="white"/>
    </clipPath>
  </defs>
</svg>