<svg xmlns="http://www.w3.org/2000/svg" width="83" height="83" viewBox="0 0 83 83" fill="none">
  <g clip-path="url(#clip0_181_1488)">
    <path d="M55.2793 30.1523C55.2793 28.8094 54.1906 27.7207 52.8477 27.7207H30.1523C28.8094 27.7207 27.7207 28.8094 27.7207 30.1523V52.8477C27.7207 54.1906 28.8094 55.2793 30.1523 55.2793H52.8477C54.1906 55.2793 55.2793 54.1906 55.2793 52.8477V30.1523Z" fill="#1E88E5"/>
    <path d="M60.7944 27.3637C61.744 28.3134 63.2836 28.3134 64.2332 27.3637L73.1747 18.4223L76.8539 22.1015C78.2957 23.5433 80.765 22.6772 80.9901 20.6506L82.9846 2.70058C83.1566 1.15179 81.848 -0.15676 80.2992 0.0152384L62.3492 2.00967C60.3226 2.23484 59.4565 4.70409 60.8983 6.14589L64.5775 9.82512L55.6361 18.7666C54.6864 19.7162 54.6864 21.2558 55.6361 22.2054L60.7944 27.3637Z" fill="#81C784"/>
    <path d="M2.00967 20.6506C2.23484 22.6772 4.70409 23.5433 6.14589 22.1015L9.82512 18.4223L18.7666 27.3637C19.7162 28.3134 21.2558 28.3134 22.2054 27.3637L27.3637 22.2054C28.3134 21.2558 28.3134 19.7162 27.3637 18.7666L18.4223 9.82512L22.1015 6.14589C23.5433 4.70409 22.6772 2.23484 20.6506 2.00967L2.70058 0.0152384C1.15179 -0.15676 -0.15676 1.15179 0.0152384 2.70058L2.00967 20.6506Z" fill="#81C784"/>
    <path d="M80.9901 62.3494C80.765 60.3229 78.2957 59.4567 76.8539 60.8985L73.1747 64.5777L64.2332 55.6363C63.2836 54.6866 61.744 54.6866 60.7944 55.6363L55.6361 60.7946C54.6864 61.7442 54.6864 63.2838 55.6361 64.2334L64.5775 73.1749L60.8983 76.8541C59.4565 78.2959 60.3226 80.7652 62.3492 80.9903L80.2992 82.9848C81.848 83.1569 83.1566 81.8482 82.9846 80.2996L80.9901 62.3494Z" fill="#81C784"/>
    <path d="M22.2054 55.6363C21.2558 54.6866 19.7162 54.6866 18.7666 55.6363L9.82512 64.5777L6.14589 60.8985C4.70409 59.4567 2.23484 60.3229 2.00967 62.3494L0.0152384 80.2994C-0.15676 81.8482 1.15179 83.1568 2.70058 82.9846L20.6506 80.9902C22.6772 80.765 23.5433 78.2958 22.1015 76.854L18.4223 73.1747L27.3637 64.2333C28.3134 63.2836 28.3134 61.7441 27.3637 60.7944L22.2054 55.6363Z" fill="#81C784"/>
  </g>
  <defs>
    <clipPath id="clip0_181_1488">
      <rect width="83" height="83" fill="white"/>
    </clipPath>
  </defs>
</svg>