<svg xmlns="http://www.w3.org/2000/svg" width="100" height="74" viewBox="0 0 100 74" fill="none">
  <path d="M3.91312 47.9916C3.40595 46.9772 4.15845 45.7871 5.29231 45.8105L11.3274 45.9345C39.8255 46.5202 66.2158 30.9783 79.5242 5.77177L81.3796 2.25755C81.9399 1.19643 83.4551 1.1835 84.0334 2.23491L90.6706 14.3028C90.8651 14.6565 90.8968 15.0819 90.7611 15.462Lnan nanL90.7611 15.462C79.0904 48.1399 45.0199 67.8137 11.0025 60.9675Lnan nanL11.0025 60.9675C10.5804 60.8825 10.2211 60.6077 10.0285 60.2225L3.91312 47.9916Z" fill="#9C0606"/>
  <path d="M36.7272 55.1999C35.9009 55.3722 35.202 55.2771 34.6307 54.9148C34.0579 54.5456 33.6876 53.9581 33.5196 53.1525C33.4119 52.636 33.4205 52.16 33.5452 51.7244C33.6755 51.2805 33.9035 50.9096 34.2294 50.6117C34.5554 50.3138 34.9593 50.1147 35.4414 50.0142C36.1369 49.8692 36.731 49.9788 37.2237 50.3432C37.715 50.7006 38.0417 51.2684 38.2039 52.0466L38.2772 52.3978L34.5793 53.1687C34.8732 54.1996 35.5366 54.6074 36.5696 54.392C36.8588 54.3318 37.1318 54.2281 37.3886 54.0812C37.6523 53.9328 37.8865 53.7295 38.0914 53.4712L38.552 54.1297C38.3678 54.3836 38.1089 54.6065 37.7752 54.7982C37.4415 54.9899 37.0922 55.1238 36.7272 55.1999ZM35.6356 50.7389C35.2017 50.8294 34.8854 51.0354 34.6866 51.3571C34.4878 51.6788 34.4075 52.0692 34.4457 52.5283L37.2657 51.9404C37.1474 51.4764 36.9481 51.1408 36.6677 50.9333C36.3859 50.719 36.0419 50.6542 35.6356 50.7389Z" fill="white"/>
  <path d="M30.8092 56.4335C29.9829 56.6058 29.2841 56.5108 28.7127 56.1484C28.14 55.7792 27.7696 55.1918 27.6016 54.3861C27.494 53.8696 27.5025 53.3936 27.6273 52.958C27.7575 52.5141 27.9855 52.1432 28.3115 51.8454C28.6374 51.5475 29.0414 51.3483 29.5234 51.2478C30.2189 51.1028 30.813 51.2125 31.3057 51.5768C31.797 51.9343 32.1238 52.5021 32.286 53.2802L32.3592 53.6314L28.6613 54.4023C28.9552 55.4332 29.6187 55.841 30.6516 55.6257C30.9408 55.5654 31.2138 55.4618 31.4706 55.3148C31.7343 55.1665 31.9685 54.9631 32.1734 54.7049L32.634 55.3633C32.4498 55.6173 32.1909 55.8401 31.8572 56.0318C31.5235 56.2235 31.1742 56.3574 30.8092 56.4335ZM29.7176 51.9726C29.2838 52.063 28.9675 52.2691 28.7686 52.5908C28.5698 52.9124 28.4896 53.3028 28.5278 53.7619L31.3477 53.174C31.2294 52.7101 31.0301 52.3744 30.7497 52.167C30.4679 51.9527 30.1239 51.8879 29.7176 51.9726Z" fill="white"/>
  <path d="M24.272 57.6993L23.2212 52.6586L24.2334 52.4476L24.4208 53.3462C24.5575 52.6926 25.0319 52.2452 25.8439 52.0041L26.1805 51.9124L26.438 52.7856L25.8208 52.9789C24.9236 53.2594 24.564 53.8266 24.742 54.6804L25.3256 57.4797L24.272 57.6993Z" fill="white"/>
  <path d="M18.399 58.9235L16.8809 51.6414L21.5084 50.6767L21.6893 51.5443L18.136 52.2851L18.6205 54.6092L21.9569 53.9136L22.1377 54.7813L18.8014 55.4768L19.4732 58.6996L18.399 58.9235Z" fill="white"/>
  <path d="M52.6111 50.1413L50.6959 46.2623L49.7971 46.7061L49.4327 45.9681L50.3315 45.5243L50.2895 45.4392C49.975 44.8021 49.8991 44.2434 50.062 43.7629C50.2311 43.2792 50.6438 42.8519 51.3 42.4809L51.7023 42.2469L52.1235 42.9333L51.7023 43.1765C51.3301 43.3917 51.1039 43.6328 51.0239 43.8998C50.9502 44.1637 51.0022 44.4754 51.1797 44.8349L51.2871 45.0525L52.5833 44.4126L52.9476 45.1505L51.6515 45.7905L53.5667 49.6695L52.6111 50.1413Z" fill="white"/>
  <path d="M48.7414 52.1569C48.2747 52.3873 47.8227 52.4889 47.3856 52.4615C46.9485 52.4341 46.5481 52.2906 46.1845 52.0308C45.824 51.7616 45.5224 51.381 45.2795 50.889C45.0366 50.397 44.9194 49.9293 44.9279 49.4858C44.9396 49.0328 45.0675 48.6245 45.3116 48.2608C45.5556 47.8971 45.911 47.6 46.3778 47.3696C46.8319 47.1454 47.2775 47.0469 47.7147 47.0743C48.1518 47.1017 48.5537 47.2484 48.9205 47.5145C49.2841 47.7743 49.5873 48.1502 49.8302 48.6421C50.0731 49.1341 50.1887 49.6066 50.177 50.0595C50.1622 50.5062 50.0328 50.9113 49.7887 51.275C49.5446 51.6387 49.1955 51.9327 48.7414 52.1569ZM48.3771 51.4189C48.7681 51.2258 49.0134 50.9282 49.113 50.5261C49.2125 50.1239 49.1299 49.6547 48.8652 49.1186C48.6005 48.5825 48.2798 48.2348 47.9031 48.0756C47.5233 47.9101 47.1379 47.9239 46.7468 48.117C46.3494 48.3132 46.101 48.6124 46.0014 49.0146C45.8988 49.4104 45.9798 49.8764 46.2445 50.4125C46.5092 50.9487 46.8315 51.2995 47.2113 51.465C47.5911 51.6305 47.9797 51.6151 48.3771 51.4189Z" fill="white"/>
  <path d="M85.8594 20.6051C85.2782 21.2172 84.6496 21.537 83.9736 21.5644C83.2925 21.587 82.6536 21.315 82.0568 20.7483C81.6742 20.385 81.4102 19.9888 81.2647 19.5597C81.119 19.1206 81.0953 18.6859 81.1937 18.2554C81.292 17.825 81.5107 17.4312 81.8497 17.0741C82.3389 16.5589 82.8898 16.3108 83.5023 16.3298C84.1097 16.3439 84.7016 16.6247 85.278 17.172L85.5381 17.419L82.9371 20.1582C83.7657 20.8384 84.5433 20.7958 85.2699 20.0307C85.4733 19.8165 85.6387 19.5758 85.7662 19.3088C85.8984 19.0367 85.9752 18.7362 85.9966 18.4072L86.7502 18.6863C86.7433 18.9999 86.6574 19.3305 86.4922 19.6781C86.3271 20.0257 86.1161 20.3347 85.8594 20.6051ZM82.422 17.5594C82.1169 17.8807 81.9742 18.2302 81.9939 18.6079C82.0136 18.9855 82.1699 19.3521 82.4627 19.7078L84.4462 17.6189C84.0848 17.3049 83.7298 17.1424 83.3812 17.1315C83.0275 17.1158 82.7078 17.2584 82.422 17.5594Z" fill="white"/>
  <path d="M82.6024 26.7902C82.2827 27.1269 81.944 27.4018 81.5863 27.6151C81.2337 27.8332 80.8667 27.9745 80.4852 28.0392L80.1596 27.2788C80.5257 27.1997 80.8559 27.0767 81.1501 26.9099C81.4443 26.7431 81.7125 26.5321 81.9547 26.2771C82.6328 25.5629 82.6148 24.8668 81.9007 24.1887L81.3115 23.6293C81.4342 23.9495 81.4504 24.2849 81.3599 24.6356C81.2743 24.9811 81.0983 25.2941 80.8319 25.5747C80.5123 25.9114 80.1572 26.132 79.7669 26.2367C79.3714 26.3365 78.9706 26.3244 78.5643 26.2006C78.153 26.0719 77.7611 25.8308 77.3888 25.4772C77.0215 25.1285 76.7655 24.7545 76.6208 24.3552C76.4711 23.9511 76.4383 23.5514 76.5226 23.1561C76.6018 22.756 76.8013 22.3876 77.121 22.051C77.3922 21.7653 77.6982 21.5708 78.0388 21.4675C78.3794 21.3641 78.7128 21.3654 79.039 21.4714L78.3886 20.8539L79.1006 20.104L82.5209 23.3517C83.1075 23.9087 83.4033 24.4757 83.4083 25.0528C83.4183 25.6346 83.1497 26.2138 82.6024 26.7902ZM80.4019 24.8171C80.7118 24.4906 80.8466 24.1239 80.8063 23.717C80.7659 23.31 80.5518 22.9225 80.1642 22.5544C79.7765 22.1862 79.381 21.995 78.9775 21.9805C78.569 21.9612 78.2098 22.1148 77.8998 22.4413C77.5898 22.7678 77.455 23.1345 77.4954 23.5414C77.5307 23.9435 77.7422 24.3287 78.1298 24.6968C78.5175 25.0649 78.9156 25.2586 79.3241 25.2779C79.7326 25.2972 80.0919 25.1436 80.4019 24.8171Z" fill="white"/>
  <path d="M76.6324 30.1835L72.8985 26.638L73.6105 25.8881L74.2762 26.5202C74.0164 25.905 74.1517 25.2671 74.6819 24.6065L74.9064 24.3395L75.6152 24.9108L75.218 25.4211C74.6401 26.1625 74.6674 26.8335 75.2999 27.4341L77.3735 29.403L76.6324 30.1835Z" fill="white"/>
  <path d="M73.6727 33.4381C73.4257 33.6983 73.1543 33.8819 72.8585 33.9891C72.5628 34.0963 72.27 34.1287 71.9804 34.0865C71.6955 34.0391 71.4434 33.9113 71.2241 33.703C70.9486 33.4415 70.7972 33.1667 70.7699 32.8789C70.7474 32.5859 70.853 32.2448 71.0867 31.8556C71.3253 31.4613 71.7061 30.9888 72.2293 30.4378L72.4763 30.1777L72.2773 29.9888C71.9866 29.7127 71.7193 29.5753 71.4755 29.5767C71.2318 29.578 70.9767 29.7189 70.7103 29.9995C70.5069 30.2137 70.3366 30.4595 70.1995 30.7367C70.0572 31.009 69.9484 31.3228 69.873 31.6781L69.1046 31.3994C69.1509 31.0748 69.2713 30.7284 69.4658 30.3601C69.6602 29.9918 69.8834 29.6751 70.1353 29.4098C70.6196 28.8997 71.1005 28.6385 71.5778 28.6262C72.0501 28.609 72.5438 28.845 73.059 29.3342L75.3621 31.5211L74.6719 32.248L74.0521 31.6595C74.1792 31.9547 74.2119 32.2574 74.1502 32.5675C74.0886 32.8775 73.9294 33.1678 73.6727 33.4381ZM73.2671 32.762C73.5287 32.4865 73.6497 32.165 73.6302 31.7973C73.6108 31.4296 73.4531 31.1053 73.1573 30.8243L72.9507 30.6282L72.7109 30.8807C72.3573 31.253 72.0967 31.5633 71.9289 31.8114C71.7661 32.0545 71.6844 32.2631 71.6839 32.4372C71.6832 32.6015 71.7568 32.7538 71.9047 32.8943C72.0986 33.0783 72.3197 33.1622 72.568 33.1458C72.8113 33.1246 73.0443 32.9966 73.2671 32.762Z" fill="white"/>
  <path d="M68.0232 39.2483L62.6289 34.1262L63.3627 33.3534L65.6046 35.4822C65.5115 35.1512 65.513 34.8278 65.6093 34.5118C65.7054 34.1859 65.8818 33.8878 66.1385 33.6174C66.9764 32.735 67.8953 32.7684 68.8951 33.7177L71.1982 35.9046L70.4644 36.6774L68.2072 34.5341C67.8858 34.229 67.5907 34.07 67.3216 34.057C67.0575 34.039 66.7994 34.1626 66.5476 34.4278C66.2521 34.739 66.1142 35.0834 66.134 35.461C66.1534 35.8287 66.3238 36.1651 66.6452 36.4703L68.757 38.4755L68.0232 39.2483Z" fill="white"/>
  <path d="M65.3011 42.2556C64.7828 42.8014 64.2274 43.1616 63.6349 43.3362C63.0423 43.5107 62.4401 43.5064 61.8284 43.3232C61.2163 43.1301 60.6272 42.7647 60.061 42.2271C59.4948 41.6894 59.102 41.1224 58.8825 40.526C58.668 39.9246 58.6325 39.3234 58.7762 38.7226C58.9198 38.1218 59.2508 37.5485 59.7691 37.0027C60.1178 36.6355 60.501 36.3494 60.9186 36.1445C61.336 35.9297 61.7535 35.8169 62.1712 35.8061L62.5447 36.6846C62.1128 36.7207 61.7322 36.8201 61.4031 36.9828C61.0736 37.1357 60.7709 37.3574 60.4948 37.6482C59.9426 38.2297 59.6998 38.843 59.7662 39.4881C59.8327 40.1333 60.1949 40.7682 60.853 41.3931C61.511 42.0179 62.1664 42.3492 62.8192 42.387C63.4669 42.42 64.0668 42.1458 64.619 41.5643C64.8951 41.2735 65.1034 40.9621 65.2441 40.6301C65.3845 40.2881 65.4616 39.9005 65.4752 39.4673L66.3719 39.7948C66.3776 40.2077 66.2865 40.6305 66.0987 41.0632C65.9157 41.4909 65.6498 41.8884 65.3011 42.2556Z" fill="white"/>
</svg>