<svg xmlns="http://www.w3.org/2000/svg" width="133" height="98" viewBox="0 0 133 98" fill="none">
  <path d="M4.93316 63.7089C4.26022 62.363 5.25867 60.784 6.76312 60.8149L14.7708 60.9795C52.5831 61.7566 87.5988 41.135 105.257 7.69L107.719 3.02719C108.462 1.61925 110.473 1.6021 111.24 2.99715L120.046 19.0094C120.304 19.4786 120.346 20.043 120.166 20.5473Lnan nanL120.166 20.5473C104.681 63.9057 59.4753 90.0097 14.3397 80.9258Lnan nanL14.3397 80.9258C13.7796 80.8131 13.3028 80.4484 13.0473 79.9374L4.93316 63.7089Z" fill="#878787"/>
  <path d="M48.4758 73.2732C47.3794 73.5018 46.4522 73.3757 45.6941 72.8949C44.9341 72.4051 44.4427 71.6256 44.2199 70.5566C44.077 69.8713 44.0883 69.2397 44.2539 68.6618C44.4266 68.0728 44.7292 67.5807 45.1617 67.1854C45.5941 66.7902 46.1301 66.5259 46.7697 66.3926C47.6925 66.2002 48.4808 66.3457 49.1346 66.8292C49.7864 67.3034 50.22 68.0568 50.4352 69.0893L50.5324 69.5553L45.6258 70.5781C46.0159 71.946 46.8961 72.4871 48.2667 72.2013C48.6504 72.1213 49.0127 71.9839 49.3534 71.7889C49.7032 71.592 50.014 71.3222 50.2858 70.9796L50.897 71.8532C50.6526 72.1902 50.3091 72.4858 49.8663 72.7402C49.4236 72.9946 48.9601 73.1723 48.4758 73.2732ZM47.0274 67.3542C46.4518 67.4742 46.0321 67.7476 45.7683 68.1745C45.5045 68.6013 45.398 69.1193 45.4487 69.7284L49.1903 68.9484C49.0333 68.3328 48.7689 67.8874 48.3969 67.6122C48.023 67.3278 47.5665 67.2419 47.0274 67.3542Z" fill="white"/>
  <path d="M40.6243 74.9099C39.5278 75.1385 38.6006 75.0124 37.8425 74.5317C37.0826 74.0418 36.5911 73.2623 36.3683 72.1933C36.2254 71.5081 36.2368 70.8764 36.4023 70.2985C36.5751 69.7095 36.8777 69.2174 37.3101 68.8222C37.7426 68.4269 38.2786 68.1626 38.9182 68.0293C39.841 67.8369 40.6293 67.9824 41.283 68.4659C41.9349 68.9402 42.3684 69.6935 42.5836 70.726L42.6808 71.192L37.7743 72.2148C38.1643 73.5827 39.0446 74.1238 40.4151 73.8381C40.7989 73.7581 41.1611 73.6206 41.5018 73.4256C41.8517 73.2287 42.1625 72.959 42.4343 72.6163L43.0454 73.4899C42.8011 73.8269 42.4575 74.1226 42.0148 74.3769C41.572 74.6313 41.1085 74.809 40.6243 74.9099ZM39.1758 68.991C38.6002 69.111 38.1805 69.3844 37.9167 69.8112C37.6529 70.238 37.5464 70.756 37.5971 71.3651L41.3387 70.5851C41.1818 69.9695 40.9173 69.5241 40.5453 69.2489C40.1714 68.9646 39.7149 68.8786 39.1758 68.991Z" fill="white"/>
  <path d="M31.952 76.5893L30.5577 69.901L31.9008 69.621L32.1494 70.8134C32.3309 69.9461 32.9603 69.3525 34.0377 69.0326L34.4843 68.9109L34.8259 70.0695L34.0071 70.326C32.8166 70.6982 32.3395 71.4507 32.5757 72.5837L33.3499 76.2978L31.952 76.5893Z" fill="white"/>
  <path d="M24.1588 78.214L22.1445 68.5518L28.2845 67.2718L28.5245 68.423L23.8099 69.4059L24.4527 72.4896L28.8796 71.5667L29.1196 72.718L24.6927 73.6408L25.5842 77.9169L24.1588 78.214Z" fill="white"/>
  <path d="M69.5459 66.5612L67.0047 61.4144L65.8122 62.0032L65.3287 61.024L66.5213 60.4352L66.4655 60.3222C66.0482 59.477 65.9476 58.7356 66.1636 58.098C66.3881 57.4564 66.9357 56.8894 67.8063 56.397L68.3401 56.0867L68.899 56.9973L68.3401 57.3201C67.8462 57.6056 67.5461 57.9255 67.44 58.2798C67.3422 58.6299 67.4111 59.0435 67.6466 59.5205L67.7892 59.8092L69.509 58.9601L69.9924 59.9393L68.2726 60.7884L70.8138 65.9352L69.5459 66.5612Z" fill="white"/>
  <path d="M64.4135 69.2357C63.7942 69.5415 63.1945 69.6762 62.6145 69.6399C62.0345 69.6036 61.5033 69.4131 61.0208 69.0684C60.5426 68.7112 60.1423 68.2062 59.82 67.5534C59.4977 66.9007 59.3423 66.28 59.3536 65.6915C59.3691 65.0906 59.5388 64.5488 59.8626 64.0662C60.1864 63.5837 60.658 63.1895 61.2773 62.8837C61.8799 62.5862 62.4711 62.4556 63.0511 62.4919C63.6312 62.5282 64.1645 62.7229 64.651 63.076C65.1335 63.4207 65.5359 63.9194 65.8582 64.5722C66.1805 65.225 66.3338 65.8518 66.3183 66.4528C66.2986 67.0454 66.1269 67.583 65.8031 68.0656C65.4792 68.5482 65.016 68.9382 64.4135 69.2357ZM63.93 68.2565C64.4489 68.0004 64.7744 67.6055 64.9065 67.0718C65.0385 66.5382 64.929 65.9157 64.5777 65.2044C64.2265 64.493 63.801 64.0318 63.3012 63.8205C62.7972 63.601 62.2858 63.6193 61.7669 63.8754C61.2397 64.1358 60.91 64.5327 60.778 65.0663C60.6418 65.5916 60.7493 66.2099 61.1005 66.9212C61.4517 67.6326 61.8793 68.0981 62.3832 68.3176C62.8872 68.5372 63.4028 68.5169 63.93 68.2565Z" fill="white"/>
  <path d="M113.661 27.3711C112.89 28.1833 112.056 28.6076 111.159 28.644C110.255 28.674 109.408 28.313 108.616 27.5611C108.108 27.0791 107.758 26.5534 107.565 25.9841C107.372 25.4015 107.34 24.8247 107.471 24.2535C107.601 23.6824 107.891 23.1599 108.341 22.6861C108.99 22.0026 109.721 21.6734 110.534 21.6985C111.34 21.7173 112.125 22.0898 112.89 22.816L113.235 23.1438L109.784 26.7783C110.883 27.6807 111.915 27.6243 112.879 26.609C113.149 26.3248 113.368 26.0055 113.538 25.6512C113.713 25.2902 113.815 24.8914 113.843 24.455L114.843 24.8252C114.834 25.2414 114.72 25.68 114.501 26.1412C114.282 26.6024 114.002 27.0124 113.661 27.3711ZM109.1 23.33C108.696 23.7564 108.506 24.2201 108.532 24.7212C108.559 25.2222 108.766 25.7087 109.154 26.1806L111.786 23.409C111.307 22.9923 110.836 22.7767 110.373 22.7623C109.904 22.7414 109.48 22.9307 109.1 23.33Z" fill="white"/>
  <path d="M109.343 35.5779C108.919 36.0246 108.47 36.3895 107.995 36.6724C107.527 36.9618 107.04 37.1494 106.534 37.2351L106.102 36.2263C106.588 36.1213 107.026 35.9581 107.416 35.7367C107.807 35.5154 108.163 35.2355 108.484 34.8971C109.384 33.9495 109.36 33.0259 108.412 32.1261L107.63 31.3839C107.793 31.8088 107.815 32.2538 107.695 32.7191C107.581 33.1775 107.348 33.5929 106.994 33.9652C106.57 34.4119 106.099 34.7046 105.581 34.8435C105.056 34.9759 104.524 34.9599 103.985 34.7956C103.44 34.6249 102.92 34.305 102.426 33.8358C101.938 33.3731 101.599 32.8768 101.407 32.3471C101.208 31.8109 101.165 31.2805 101.276 30.7561C101.381 30.2252 101.646 29.7364 102.07 29.2897C102.43 28.9107 102.836 28.6526 103.288 28.5155C103.74 28.3784 104.182 28.3801 104.615 28.5208L103.752 27.7014L104.697 26.7064L109.235 31.0155C110.013 31.7546 110.406 32.507 110.413 33.2726C110.426 34.0447 110.069 34.8131 109.343 35.5779ZM106.423 32.9599C106.835 32.5268 107.014 32.0402 106.96 31.5002C106.906 30.9603 106.622 30.4461 106.108 29.9576C105.594 29.4692 105.069 29.2154 104.534 29.1963C103.992 29.1707 103.515 29.3745 103.104 29.8076C102.692 30.2408 102.514 30.7274 102.567 31.2673C102.614 31.8009 102.895 32.3119 103.409 32.8003C103.923 33.2887 104.451 33.5457 104.993 33.5713C105.536 33.5969 106.012 33.3931 106.423 32.9599Z" fill="white"/>
  <path d="M101.42 40.08L96.4656 35.3757L97.4103 34.3808L98.2936 35.2194C97.9489 34.4031 98.1284 33.5567 98.8319 32.6803L99.1297 32.326L100.07 33.084L99.5432 33.7611C98.7764 34.7448 98.8127 35.6351 99.6519 36.432L102.403 39.0445L101.42 40.08Z" fill="white"/>
  <path d="M97.4917 44.3986C97.1639 44.7438 96.8038 44.9875 96.4114 45.1297C96.0189 45.2719 95.6305 45.315 95.2462 45.2589C94.8683 45.196 94.5338 45.0264 94.2427 44.7501C93.8773 44.4031 93.6764 44.0386 93.6401 43.6566C93.6102 43.2678 93.7503 42.8153 94.0605 42.2989C94.377 41.7758 94.8823 41.1487 95.5764 40.4178L95.9042 40.0726L95.6402 39.8219C95.2544 39.4556 94.8998 39.2733 94.5764 39.2751C94.2529 39.2769 93.9145 39.4639 93.561 39.8361C93.2911 40.1204 93.0652 40.4464 92.8832 40.8143C92.6945 41.1756 92.5501 41.592 92.4501 42.0633L91.4305 41.6936C91.4919 41.2629 91.6517 40.8032 91.9097 40.3146C92.1677 39.826 92.4639 39.4057 92.798 39.0538C93.4407 38.3769 94.0787 38.0303 94.7121 38.0139C95.3387 37.9911 95.9938 38.3043 96.6773 38.9534L99.7332 41.855L98.8174 42.8195L97.995 42.0386C98.1636 42.4304 98.207 42.832 98.1253 43.2434C98.0435 43.6548 97.8323 44.0399 97.4917 44.3986ZM96.9535 43.5015C97.3005 43.136 97.4612 42.7093 97.4353 42.2215C97.4095 41.7336 97.2003 41.3033 96.8077 40.9305L96.5336 40.6703L96.2155 41.0053C95.7464 41.4994 95.4005 41.911 95.178 42.2403C94.9618 42.5628 94.8535 42.8396 94.8529 43.0706C94.8519 43.2885 94.9496 43.4907 95.1458 43.677C95.403 43.9212 95.6964 44.0325 96.0259 44.0108C96.3487 43.9826 96.6579 43.8128 96.9535 43.5015Z" fill="white"/>
  <path d="M89.9992 52.1078L82.8418 45.3115L83.8154 44.2861L86.7901 47.1107C86.6665 46.6715 86.6686 46.2424 86.7964 45.8231C86.9238 45.3907 87.1578 44.9952 87.4985 44.6364C88.6103 43.4655 89.8295 43.5099 91.156 44.7695L94.2119 47.6712L93.2382 48.6966L90.2433 45.8528C89.8169 45.4479 89.4252 45.2369 89.0683 45.2197C88.7178 45.1958 88.3754 45.3598 88.0412 45.7117C87.6492 46.1246 87.4663 46.5815 87.4924 47.0826C87.5183 47.5705 87.7444 48.0168 88.1708 48.4217L90.9728 51.0824L89.9992 52.1078Z" fill="white"/>
  <path d="M86.3834 56.0978C85.6957 56.822 84.9588 57.2999 84.1725 57.5315C83.3863 57.7631 82.5873 57.7574 81.7756 57.5143C80.9635 57.2581 80.1819 56.7733 79.4306 56.0599C78.6793 55.3465 78.1581 54.5942 77.867 53.8029C77.5822 53.0049 77.5352 52.2072 77.7258 51.4101C77.9164 50.6129 78.3556 49.8522 79.0432 49.128C79.506 48.6407 80.0144 48.2612 80.5685 47.9894C81.1223 47.7044 81.6763 47.5547 82.2305 47.5403L82.7261 48.7059C82.1529 48.7538 81.648 48.8857 81.2113 49.1016C80.7742 49.3044 80.3725 49.5987 80.0062 49.9845C79.2735 50.7561 78.9513 51.5698 79.0395 52.4258C79.1276 53.2817 79.6083 54.1242 80.4814 54.9533C81.3545 55.7823 82.2241 56.222 83.0902 56.2722C83.9496 56.3159 84.7456 55.952 85.4783 55.1805C85.8446 54.7947 86.1211 54.3815 86.3077 53.941C86.494 53.4872 86.5963 52.9729 86.6144 52.3981L87.8041 52.8327C87.8117 53.3805 87.6908 53.9415 87.4416 54.5157C87.1988 55.0831 86.8461 55.6105 86.3834 56.0978Z" fill="white"/>
</svg>