<svg xmlns="http://www.w3.org/2000/svg" width="47" height="40" viewBox="0 0 47 40" fill="none">
  <path d="M35.25 29.9127V15.6363C35.25 9.05328 29.9894 3.71374 23.5 3.71374C17.0106 3.71374 11.75 9.05162 11.75 15.6363V32.8585C11.75 33.6464 11.174 34.2864 10.4648 34.2864H5.14095C2.30215 34.2864 -5.0071e-08 31.728 0 28.5712V22.8576C0 19.7008 2.30215 17.1424 5.14095 17.1424H7.93018V15.4301C7.93018 6.90549 14.9016 0 23.5 0C32.0984 0 39.0698 6.90716 39.0698 15.4285V17.1424H41.8591C44.6979 17.1424 47 19.7024 47 22.8576V28.5729C47 31.728 44.6979 34.2864 41.8591 34.2864H36.6378C34.9962 36.0755 32.9861 37.5088 30.7381 38.4931C28.49 39.4774 26.0542 39.9909 23.5889 40H20.5091C19.744 40 19.0102 39.7044 18.4691 39.1781C17.9281 38.6519 17.6241 37.9381 17.6241 37.1939V37.0925C17.6241 35.5432 18.9145 34.2864 20.5091 34.2864H23.5513C24.7562 34.2864 25.7885 35.0046 26.2209 36.0253C28.0756 35.6617 29.8338 34.9315 31.3867 33.8801C32.9395 32.8287 34.2538 31.4783 35.2483 29.9127H35.25Z" fill="#878787"/>
</svg>