<svg xmlns="http://www.w3.org/2000/svg" width="101" height="101" viewBox="0 0 101 101" fill="none">
  <circle cx="50.5" cy="50.5" r="50.5" fill="white"/>
  <path d="M46.5365 22.155H37.8672C36.7497 22.155 35.8438 23.2325 35.8438 24.5614V34.8716C35.8438 36.2006 36.7497 37.278 37.8672 37.278H46.5365C47.6539 37.278 48.5599 36.2006 48.5599 34.8716V24.5614C48.5599 23.2325 47.6539 22.155 46.5365 22.155Z" fill="#414143"/>
  <path d="M46.3919 55.4917V45.1816C46.3919 43.8526 45.486 42.7751 44.3685 42.7751H35.6992C34.5817 42.7751 33.6758 43.8526 33.6758 45.1816V55.4917C33.6758 56.8207 34.5817 57.8981 35.6992 57.8981H44.3685C45.486 57.8981 46.3919 56.8207 46.3919 55.4917Z" fill="#676767"/>
  <path d="M46.5365 63.3954H37.8672C36.7497 63.3954 35.8438 64.4729 35.8438 65.8019V76.112C35.8438 77.441 36.7497 78.5184 37.8672 78.5184H46.5365C47.6539 78.5184 48.5599 77.441 48.5599 76.112V65.8019C48.5599 64.4729 47.6539 63.3954 46.5365 63.3954Z" fill="#676767"/>
  <path d="M27.0306 53.0853H18.3613C17.2438 53.0853 16.3379 54.1628 16.3379 55.4917V65.8019C16.3379 67.1309 17.2438 68.2083 18.3613 68.2083H27.0306C28.1481 68.2083 29.054 67.1309 29.054 65.8019V55.4917C29.054 54.1628 28.1481 53.0853 27.0306 53.0853Z" fill="#414143"/>
  <path d="M27.0306 32.4651H18.3613C17.2438 32.4651 16.3379 33.5426 16.3379 34.8716V45.1817C16.3379 46.5107 17.2438 47.5881 18.3613 47.5881H27.0306C28.1481 47.5881 29.054 46.5107 29.054 45.1817V34.8716C29.054 33.5426 28.1481 32.4651 27.0306 32.4651Z" fill="#676767"/>
  <path d="M84.6974 58.9529L79.7406 53.8971C80.0161 51.5478 80.0161 49.1255 79.7406 46.7762L84.6974 41.7203C85.4365 40.9663 85.6193 39.6933 85.1324 38.6905L80.256 28.646C79.7692 27.6432 78.7507 27.1951 77.8321 27.5792L71.6676 30.1585C70.0822 28.6813 68.3469 27.4874 66.4867 26.5937L65.2833 18.9628C65.1038 17.8248 64.2683 17 63.2946 17H55.2051C54.0876 17 53.1816 18.0774 53.1816 19.4064V38.0264C53.1816 38.7911 53.4872 39.5101 54.0049 39.9637C54.5225 40.4174 55.1906 40.5513 55.8047 40.3246C61.3382 38.1794 67.3251 43.3979 67.2312 50.3367C67.3254 57.274 61.3377 62.4955 55.8047 60.3486C55.1905 60.1219 54.5226 60.2561 54.0049 60.7096C53.4873 61.1631 53.1816 61.8823 53.1816 62.6469V81.267C53.1816 82.596 54.0876 83.6734 55.2051 83.6734H63.2946C64.2683 83.6734 65.1039 82.8487 65.2833 81.7106L66.4867 74.0797C68.3469 73.186 70.0822 71.9919 71.6676 70.5149L77.8321 73.0942C78.7507 73.4784 79.769 73.0302 80.256 72.0274L85.1324 61.9829C85.6194 60.9799 85.4366 59.7069 84.6974 58.9529Z" fill="#9C0404"/>
</svg>