<svg xmlns="http://www.w3.org/2000/svg" width="35" height="35" viewBox="0 0 35 35" fill="none">
  <g clip-path="url(#clip0_181_1256)">
    <path fill-rule="evenodd" clip-rule="evenodd" d="M17.5 2.95825C14.4169 2.95825 11.46 4.18303 9.27988 6.36314C7.09977 8.54325 5.875 11.5001 5.875 14.5833C5.875 19.0845 8.80486 23.4584 12.0264 26.8589C13.6065 28.5268 15.1918 29.8924 16.3836 30.8415C16.8154 31.1853 17.194 31.4732 17.5 31.6998C17.806 31.4732 18.1846 31.1853 18.6164 30.8415C19.8083 29.8924 21.3935 28.5268 22.9736 26.8589C26.1951 23.4584 29.125 19.0845 29.125 14.5833C29.125 11.5001 27.9002 8.54325 25.7201 6.36314C23.54 4.18302 20.5831 2.95825 17.5 2.95825ZM17.5 33.5416C16.6679 34.7897 16.6676 34.7894 16.6671 34.7891L16.6629 34.7863L16.6531 34.7797L16.6196 34.757C16.5911 34.7377 16.5505 34.7099 16.4985 34.674C16.3948 34.6021 16.2457 34.4974 16.0578 34.3617C15.6822 34.0904 15.1506 33.6945 14.5148 33.1883C13.2457 32.1777 11.5497 30.7178 9.84857 28.9222C6.50764 25.3956 2.875 20.2903 2.875 14.5833C2.875 10.7045 4.41584 6.98453 7.15856 4.24181C9.90128 1.4991 13.6212 -0.041748 17.5 -0.041748C21.3788 -0.041748 25.0987 1.4991 27.8414 4.24181C30.5842 6.98453 32.125 10.7045 32.125 14.5833C32.125 20.2903 28.4924 25.3956 25.1514 28.9222C23.4503 30.7178 21.7543 32.1777 20.4852 33.1883C19.8494 33.6945 19.3178 34.0904 18.9422 34.3617C18.7543 34.4974 18.6052 34.6021 18.5015 34.674C18.4495 34.7099 18.4089 34.7377 18.3804 34.757L18.3469 34.7797L18.3371 34.7863L18.3329 34.7891C18.3324 34.7894 18.3321 34.7897 17.5 33.5416ZM17.5 33.5416L18.3329 34.7891C17.829 35.125 17.171 35.125 16.6671 34.7891L17.5 33.5416Z" fill="#797979"/>
    <path d="M17.5 18.9583C19.9162 18.9583 21.875 16.9995 21.875 14.5833C21.875 12.167 19.9162 10.2083 17.5 10.2083C15.0838 10.2083 13.125 12.167 13.125 14.5833C13.125 16.9995 15.0838 18.9583 17.5 18.9583Z" fill="white"/>
    <path fill-rule="evenodd" clip-rule="evenodd" d="M17.5 11.7083C15.9122 11.7083 14.625 12.9954 14.625 14.5833C14.625 16.1711 15.9122 17.4583 17.5 17.4583C19.0878 17.4583 20.375 16.1711 20.375 14.5833C20.375 12.9954 19.0878 11.7083 17.5 11.7083ZM11.625 14.5833C11.625 11.3386 14.2553 8.70825 17.5 8.70825C20.7447 8.70825 23.375 11.3386 23.375 14.5833C23.375 17.8279 20.7447 20.4583 17.5 20.4583C14.2553 20.4583 11.625 17.8279 11.625 14.5833Z" fill="white"/>
  </g>
  <defs>
    <clipPath id="clip0_181_1256">
      <rect width="35" height="35" fill="white"/>
    </clipPath>
  </defs>
</svg>