<svg xmlns="http://www.w3.org/2000/svg" width="35" height="35" viewBox="0 0 35 35" fill="none">
  <g clip-path="url(#clip0_121_1603)">
    <path fill-rule="evenodd" clip-rule="evenodd" d="M17.5 2.9585C14.4169 2.9585 11.46 4.18327 9.27988 6.36338C7.09977 8.54349 5.875 11.5004 5.875 14.5835C5.875 19.0848 8.80486 23.4586 12.0264 26.8592C13.6065 28.5271 15.1918 29.8926 16.3836 30.8417C16.8154 31.1856 17.194 31.4735 17.5 31.7C17.806 31.4735 18.1846 31.1856 18.6164 30.8417C19.8083 29.8926 21.3935 28.5271 22.9736 26.8592C26.1951 23.4586 29.125 19.0848 29.125 14.5835C29.125 11.5004 27.9002 8.54349 25.7201 6.36338C23.54 4.18327 20.5831 2.9585 17.5 2.9585ZM17.5 33.5418C16.6679 34.7899 16.6676 34.7896 16.6671 34.7894L16.6629 34.7865L16.6531 34.78L16.6196 34.7573C16.5911 34.7379 16.5505 34.7101 16.4985 34.6742C16.3948 34.6023 16.2457 34.4976 16.0578 34.3619C15.6822 34.0907 15.1506 33.6948 14.5148 33.1886C13.2457 32.178 11.5497 30.718 9.84857 28.9224C6.50764 25.3959 2.875 20.2906 2.875 14.5835C2.875 10.7047 4.41584 6.98478 7.15856 4.24206C9.90128 1.49934 13.6212 -0.0415039 17.5 -0.0415039C21.3788 -0.0415039 25.0987 1.49934 27.8414 4.24206C30.5842 6.98478 32.125 10.7047 32.125 14.5835C32.125 20.2906 28.4924 25.3959 25.1514 28.9224C23.4503 30.718 21.7543 32.178 20.4852 33.1886C19.8494 33.6948 19.3178 34.0907 18.9422 34.3619C18.7543 34.4976 18.6052 34.6023 18.5015 34.6742C18.4495 34.7101 18.4089 34.7379 18.3804 34.7573L18.3469 34.78L18.3371 34.7865L18.3329 34.7894C18.3324 34.7896 18.3321 34.7899 17.5 33.5418ZM17.5 33.5418L18.3329 34.7894C17.829 35.1253 17.171 35.1253 16.6671 34.7894L17.5 33.5418Z" fill="#9C0404"/>
    <path d="M17.5 18.9585C19.9162 18.9585 21.875 16.9997 21.875 14.5835C21.875 12.1673 19.9162 10.2085 17.5 10.2085C15.0838 10.2085 13.125 12.1673 13.125 14.5835C13.125 16.9997 15.0838 18.9585 17.5 18.9585Z" fill="#A85454"/>
    <path fill-rule="evenodd" clip-rule="evenodd" d="M17.5 11.7085C15.9122 11.7085 14.625 12.9957 14.625 14.5835C14.625 16.1713 15.9122 17.4585 17.5 17.4585C19.0878 17.4585 20.375 16.1713 20.375 14.5835C20.375 12.9957 19.0878 11.7085 17.5 11.7085ZM11.625 14.5835C11.625 11.3388 14.2553 8.7085 17.5 8.7085C20.7447 8.7085 23.375 11.3388 23.375 14.5835C23.375 17.8282 20.7447 20.4585 17.5 20.4585C14.2553 20.4585 11.625 17.8282 11.625 14.5835Z" fill="#9C0404"/>
  </g>
  <defs>
    <clipPath id="clip0_121_1603">
      <rect width="35" height="35" fill="white"/>
    </clipPath>
  </defs>
</svg>