<svg xmlns="http://www.w3.org/2000/svg" width="27" height="22" viewBox="0 0 27 22" fill="none">
  <path d="M9.68467 21.698C8.83642 21.698 8.03302 21.3833 7.51822 20.8408L0.550874 13.5233C0.335464 13.2973 0.178201 13.0398 0.0880751 12.7654C-0.00205069 12.4911 -0.0232714 12.2054 0.0256257 11.9245C0.0745228 11.6437 0.192579 11.3732 0.373045 11.1287C0.553511 10.8841 0.792849 10.6702 1.07737 10.4992C1.3618 10.3275 1.68606 10.2021 2.03156 10.1302C2.37707 10.0583 2.73704 10.0413 3.09083 10.0802C3.44462 10.1191 3.78527 10.2131 4.09328 10.3568C4.40128 10.5005 4.67058 10.6911 4.88573 10.9177L9.47017 15.7289L20.9966 1.01633C21.3789 0.530555 21.9879 0.185133 22.6902 0.0558273C23.3924 -0.0734783 24.1305 0.0238905 24.7426 0.326576C26.0159 0.955876 26.4079 2.28888 25.6123 3.30258L11.9935 20.6781C11.761 20.976 11.4405 21.2244 11.06 21.4015C10.6794 21.5787 10.2501 21.6794 9.80947 21.6949C9.76657 21.698 9.72757 21.698 9.68467 21.698Z" fill="#444444"/>
</svg>