<svg xmlns="http://www.w3.org/2000/svg" width="91" height="91" viewBox="0 0 91 91" fill="none">
  <g clip-path="url(#clip0_181_1466)">
    <path d="M59.0078 63.9844C41.3663 63.9844 27.0156 49.6337 27.0156 31.9922C27.0156 14.3506 41.3663 0 59.0078 0C76.6494 0 91 14.3506 91 31.9922C91 49.6337 76.6494 63.9844 59.0078 63.9844Z" fill="#81C784"/>
    <path d="M59.0082 63.9844C76.6498 63.9844 91.0004 49.6337 91.0004 31.9922C91.0004 23.1714 87.4126 15.1734 81.6199 9.38046L36.3965 54.6039C42.1894 60.3966 50.1874 63.9844 59.0082 63.9844Z" fill="#6EAE71"/>
    <path d="M31.9922 91C14.3506 91 0 76.6494 0 59.0078C0 41.3663 14.3506 27.0156 31.9922 27.0156C49.6337 27.0156 63.9844 41.3663 63.9844 59.0078C63.9844 76.6494 49.6337 91 31.9922 91Z" fill="#42A5F5"/>
    <path d="M31.9926 91C49.6341 91 63.9848 76.6494 63.9848 59.0078C63.9848 50.187 60.397 42.189 54.6043 36.3961L9.38086 81.6195C15.1738 87.4122 23.1718 91 31.9926 91Z" fill="#1E88E5"/>
    <path d="M50.8321 18.8398V24.1719H63.0583L27.6191 59.6112L31.3889 63.381L66.8282 27.9418V40.168H72.1603V18.8398H50.8321Z" fill="#EAEDF3"/>
    <path d="M31.3888 63.381L66.8281 27.9418V40.168H72.1602V18.8398L29.5039 61.4961L31.3888 63.381Z" fill="#EAEDF3"/>
  </g>
  <defs>
    <clipPath id="clip0_181_1466">
      <rect width="91" height="91" fill="white"/>
    </clipPath>
  </defs>
</svg>