<svg width="136" height="136" viewBox="0 0 136 136" fill="none" xmlns="http://www.w3.org/2000/svg">
<circle cx="68" cy="68" r="68" fill="#D9D9D9"/>
<path d="M62.6637 35.8367H50.9902C49.4855 35.8367 48.2656 37.0566 48.2656 38.5613V50.2348C48.2656 51.7395 49.4855 52.9594 50.9902 52.9594H62.6637C64.1684 52.9594 65.3883 51.7395 65.3883 50.2348V38.5613C65.3883 37.0566 64.1684 35.8367 62.6637 35.8367Z" fill="#1E88E5"/>
<path d="M62.4684 73.5816V61.9081C62.4684 60.4034 61.2485 59.1835 59.7438 59.1835H48.0703C46.5656 59.1835 45.3457 60.4034 45.3457 61.9081V73.5816C45.3457 75.0863 46.5656 76.3062 48.0703 76.3062H59.7438C61.2485 76.3062 62.4684 75.0863 62.4684 73.5816Z" fill="#42A5F5"/>
<path d="M62.6637 82.5305H50.9902C49.4855 82.5305 48.2656 83.7504 48.2656 85.2551V96.9286C48.2656 98.4333 49.4855 99.6532 50.9902 99.6532H62.6637C64.1684 99.6532 65.3883 98.4333 65.3883 96.9286V85.2551C65.3883 83.7504 64.1684 82.5305 62.6637 82.5305Z" fill="#42A5F5"/>
<path d="M36.3981 70.857H24.7246C23.2199 70.857 22 72.0769 22 73.5816V85.2551C22 86.7598 23.2199 87.9797 24.7246 87.9797H36.3981C37.9028 87.9797 39.1227 86.7598 39.1227 85.2551V73.5816C39.1227 72.0769 37.9028 70.857 36.3981 70.857Z" fill="#1E88E5"/>
<path d="M36.3981 47.5102H24.7246C23.2199 47.5102 22 48.7301 22 50.2348V61.9083C22 63.413 23.2199 64.6329 24.7246 64.6329H36.3981C37.9028 64.6329 39.1227 63.413 39.1227 61.9083V50.2348C39.1227 48.7301 37.9028 47.5102 36.3981 47.5102Z" fill="#42A5F5"/>
<path d="M114.048 77.5005L107.374 71.7761C107.745 69.1161 107.745 66.3735 107.374 63.7136L114.048 57.9892C115.044 57.1355 115.29 55.6942 114.634 54.5587L108.068 43.186C107.412 42.0506 106.041 41.5433 104.804 41.9781L96.5034 44.8985C94.3685 43.226 92.0319 41.8742 89.5271 40.8623L87.9067 32.2224C87.6649 30.9338 86.5398 30 85.2287 30H74.3359C72.8312 30 71.6113 31.2199 71.6113 32.7246V53.8067C71.6113 54.6726 72.0227 55.4867 72.7199 56.0002C73.4168 56.5139 74.3165 56.6656 75.1433 56.4089C82.5944 53.98 90.656 59.8886 90.5296 67.7449C90.6564 75.5996 82.5937 81.5115 75.1433 79.0807C74.3163 78.8241 73.417 78.9759 72.7199 79.4894C72.0229 80.0029 71.6113 80.8172 71.6113 81.6829V102.765C71.6113 104.27 72.8312 105.49 74.3359 105.49H85.2287C86.5398 105.49 87.6651 104.556 87.9067 103.267L89.5271 94.6275C92.0319 93.6156 94.3685 92.2637 96.5034 90.5913L104.804 93.5117C106.041 93.9468 107.412 93.4393 108.068 92.3038L114.634 80.9311C115.29 79.7955 115.044 78.3542 114.048 77.5005Z" fill="#81C784"/>
</svg>
