<svg xmlns="http://www.w3.org/2000/svg" width="67" height="67" viewBox="0 0 67 67" fill="none">
  <g clip-path="url(#clip0_155_1549)">
    <path d="M43.4453 47.1094C30.4565 47.1094 19.8906 36.5435 19.8906 23.5547C19.8906 10.5658 30.4565 0 43.4453 0C56.4342 0 67 10.5658 67 23.5547C67 36.5435 56.4342 47.1094 43.4453 47.1094Z" fill="#AA4949"/>
    <path d="M43.4451 47.1094C56.4339 47.1094 66.9997 36.5435 66.9997 23.5547C66.9997 17.0603 64.3582 11.1716 60.0933 6.90649L26.7969 40.2029C31.062 44.4678 36.9506 47.1094 43.4451 47.1094Z" fill="#9C0404"/>
    <path d="M23.5547 67C10.5658 67 0 56.4342 0 43.4453C0 30.4565 10.5658 19.8906 23.5547 19.8906C36.5435 19.8906 47.1094 30.4565 47.1094 43.4453C47.1094 56.4342 36.5435 67 23.5547 67Z" fill="#676767"/>
    <path d="M23.5544 67C36.5433 67 47.1091 56.4341 47.1091 43.4453C47.1091 36.9509 44.4676 31.0622 40.2026 26.7971L6.90625 60.0935C11.1713 64.3585 17.06 67 23.5544 67Z" fill="#414143"/>
    <path d="M37.4249 13.8711V17.7969H46.4266L20.334 43.8896L23.1095 46.6651L49.2022 20.5725V29.5742H53.128V13.8711H37.4249Z" fill="#EAEDF3"/>
    <path d="M23.1104 46.6651L49.2031 20.5725V29.5742H53.1289V13.8711L21.7227 45.2773L23.1104 46.6651Z" fill="#EAEDF3"/>
  </g>
  <defs>
    <clipPath id="clip0_155_1549">
      <rect width="67" height="67" fill="white"/>
    </clipPath>
  </defs>
</svg>